<svg version="1.2" xmlns="http://www.w3.org/2000/svg" viewBox="0 0 24 24" width="24" height="24">
	<title>more_vert_black_48dp-svg</title>
	<style>
		.s0 { fill: none } 
		.s1 { fill: #667999 } 
	</style>
	<path id="Layer" class="s0" d="m0 0h24v24h-24z"/>
	<path id="Layer" class="s1" d="m10 6c0-1.1 0.9-2 2-2 1.1 0 2 0.9 2 2 0 1.1-0.9 2-2 2-1.1 0-2-0.9-2-2zm4 6c0 1.1-0.9 2-2 2-1.1 0-2-0.9-2-2 0-1.1 0.9-2 2-2 1.1 0 2 0.9 2 2zm0 6c0 1.1-0.9 2-2 2-1.1 0-2-0.9-2-2 0-1.1 0.9-2 2-2 1.1 0 2 0.9 2 2z"/>
</svg>